<svg width="154" height="62" viewBox="0 0 154 62" fill="none" xmlns="http://www.w3.org/2000/svg">
<path d="M15.804 26C18.972 26 21.744 26.564 24.12 27.692C26.496 28.82 28.344 30.392 29.664 32.408C31.008 34.424 31.68 36.788 31.68 39.5C31.68 42.188 31.008 44.552 29.664 46.592C28.344 48.608 26.496 50.18 24.12 51.308C21.744 52.436 18.972 53 15.804 53H2.628V26H15.804ZM9.396 50.228L6.084 46.988H16.308C18.036 46.988 19.536 46.676 20.808 46.052C22.08 45.428 23.064 44.564 23.76 43.46C24.456 42.332 24.804 41.012 24.804 39.5C24.804 37.964 24.456 36.644 23.76 35.54C23.064 34.436 22.08 33.572 20.808 32.948C19.536 32.324 18.036 32.012 16.308 32.012H6.084L9.396 28.772V50.228ZM53.7494 53L52.8494 45.548L53.8214 42.74L52.8494 39.968L53.7494 32.48H60.6974L59.4374 42.74L60.6974 53H53.7494ZM55.4054 42.74C55.0454 44.924 54.3614 46.832 53.3534 48.464C52.3454 50.072 51.0734 51.332 49.5374 52.244C48.0014 53.132 46.2734 53.576 44.3534 53.576C42.3374 53.576 40.5614 53.12 39.0254 52.208C37.5134 51.296 36.3254 50.036 35.4614 48.428C34.5974 46.796 34.1654 44.9 34.1654 42.74C34.1654 40.58 34.5974 38.696 35.4614 37.088C36.3254 35.456 37.5134 34.184 39.0254 33.272C40.5614 32.36 42.3374 31.904 44.3534 31.904C46.2734 31.904 48.0014 32.36 49.5374 33.272C51.0734 34.16 52.3454 35.408 53.3534 37.016C54.3854 38.624 55.0694 40.532 55.4054 42.74ZM40.9334 42.74C40.9334 43.844 41.1614 44.828 41.6174 45.692C42.0734 46.532 42.6974 47.204 43.4894 47.708C44.3054 48.188 45.2414 48.428 46.2974 48.428C47.3534 48.428 48.3494 48.188 49.2854 47.708C50.2454 47.204 51.0854 46.532 51.8054 45.692C52.5254 44.828 53.0654 43.844 53.4254 42.74C53.0654 41.636 52.5254 40.664 51.8054 39.824C51.0854 38.96 50.2454 38.288 49.2854 37.808C48.3494 37.304 47.3534 37.052 46.2974 37.052C45.2414 37.052 44.3054 37.304 43.4894 37.808C42.6974 38.288 42.0734 38.96 41.6174 39.824C41.1614 40.664 40.9334 41.636 40.9334 42.74ZM63.52 32.48H70.18L71.512 40.472V53H64.816V39.464L63.52 32.48ZM79.18 31.904C81.148 31.904 82.816 32.3 84.184 33.092C85.576 33.884 86.632 35 87.352 36.44C88.096 37.856 88.468 39.56 88.468 41.552V53H81.772V42.56C81.772 40.856 81.352 39.572 80.512 38.708C79.672 37.82 78.472 37.376 76.912 37.376C75.808 37.376 74.848 37.616 74.032 38.096C73.216 38.552 72.592 39.212 72.16 40.076C71.728 40.916 71.512 41.924 71.512 43.1L69.388 41.984C69.652 39.8 70.24 37.964 71.152 36.476C72.088 34.988 73.24 33.86 74.608 33.092C76 32.3 77.524 31.904 79.18 31.904ZM91.7196 53V48.32L106.336 36.332L110.944 37.34H91.8276V32.48H113.464V37.16L98.8836 49.148L94.9596 48.14H113.536V53H91.7196ZM117.086 25.28H123.746V53H117.086V25.28ZM134.319 59.516C132.879 59.516 131.595 59.336 130.467 58.976C129.363 58.616 128.283 58.076 127.227 57.356V52.64C128.307 53.336 129.315 53.828 130.251 54.116C131.211 54.428 132.255 54.584 133.383 54.584C134.391 54.584 135.267 54.368 136.011 53.936C136.779 53.504 137.415 52.712 137.919 51.56L146.127 32.48H153.219L143.175 53.648C142.503 55.088 141.699 56.24 140.763 57.104C139.827 57.968 138.807 58.58 137.703 58.94C136.623 59.324 135.495 59.516 134.319 59.516ZM135.111 51.38L126.219 32.48H133.563L141.555 51.38H135.111Z" fill="#E950A0"/>
<path d="M111.748 0.622728C113.319 5.35339 109.924 14.4682 102.586 17.3206C105.965 17.1702 112.793 20.5679 113.628 30.3427C109.465 24.7286 96.2289 16.0224 91.3432 27.8117C90.6974 20.7923 94.1544 16.6755 97.498 13.9957C101.678 10.6459 112.285 4.56705 111.748 0.622728ZM96.1921 2.12095C98.7056 1.77904 101.02 3.53936 101.362 6.05274C101.704 8.56627 99.9439 10.8817 97.4304 11.2236C94.9169 11.5654 92.6023 9.80434 92.2603 7.29088C91.9186 4.77753 93.6788 2.46295 96.1921 2.12095Z" fill="#E950A0"/>
</svg>
