<svg width="20" height="20" viewBox="0 0 20 20" fill="none" xmlns="http://www.w3.org/2000/svg">
<path d="M19.9555 7.6915C19.8485 7.36426 19.564 7.12573 19.2214 7.07625L13.413 6.23724L10.8154 1.00394C10.6622 0.695385 10.3462 0.5 10 0.5C9.65389 0.5 9.33779 0.695385 9.18467 1.00394L6.58717 6.23716L0.778572 7.07618C0.436072 7.12565 0.151424 7.36419 0.0445487 7.69142C-0.0624435 8.01865 0.0267753 8.37797 0.274666 8.61813L4.47775 12.691L3.48517 18.4432C3.4267 18.7823 3.56689 19.1251 3.84689 19.3273C4.12693 19.5295 4.49803 19.5563 4.80447 19.3962L10 16.6806L15.1956 19.3962C15.3286 19.4657 15.4739 19.5 15.6186 19.5C15.6199 19.5 15.6212 19.5 15.6224 19.5C16.1235 19.4986 16.5291 19.0944 16.5291 18.596C16.5291 18.5266 16.5212 18.459 16.5063 18.394L15.5222 12.691L19.7254 8.61821C19.9732 8.37804 20.0624 8.01881 19.9555 7.6915Z" fill="#F4C90B"/>
</svg>
