<svg width="45" height="45" viewBox="0 0 45 45" fill="none" xmlns="http://www.w3.org/2000/svg">
<g clip-path="url(#clip0_116_473)">
<path d="M1.44231 8.91519H8.9875C9.62731 11.3471 11.8444 13.146 14.4742 13.146C17.104 13.146 19.3212 11.3471 19.961 8.91519H43.5577C44.3542 8.91519 45 8.26942 45 7.47288C45 6.67634 44.3542 6.03057 43.5577 6.03057H19.9608C19.321 3.59865 17.1038 1.7998 14.474 1.7998C11.8442 1.7998 9.62712 3.59865 8.98731 6.03057H1.44231C0.645769 6.03057 0 6.67634 0 7.47288C0 8.26942 0.645769 8.91519 1.44231 8.91519ZM14.4742 4.68442C16.0117 4.68442 17.2627 5.93538 17.2627 7.47288C17.2627 9.01038 16.0117 10.2613 14.4742 10.2613C12.9367 10.2613 11.6858 9.01038 11.6858 7.47288C11.6858 5.93538 12.9367 4.68442 14.4742 4.68442Z" fill="#1B1C20"/>
<path d="M43.5577 20.9769H33.9442C33.3044 18.5449 31.0873 16.7461 28.4575 16.7461C25.8277 16.7461 23.6106 18.5449 22.9708 20.9769H1.44231C0.645769 20.9769 0 21.6226 0 22.4192C0 23.2157 0.645769 23.8615 1.44231 23.8615H22.971C23.6108 26.2932 25.8279 28.0922 28.4577 28.0922C31.0875 28.0922 33.3046 26.2932 33.9444 23.8615H43.5579C44.3544 23.8615 45.0002 23.2157 45.0002 22.4192C45.0002 21.6226 44.3542 20.9769 43.5577 20.9769ZM28.4577 25.2076C26.9202 25.2076 25.6692 23.9567 25.6692 22.4192C25.6692 20.8817 26.9202 19.6307 28.4577 19.6307C29.9952 19.6307 31.2462 20.8817 31.2462 22.4192C31.2462 23.9567 29.9952 25.2076 28.4577 25.2076Z" fill="#1B1C20"/>
<path d="M43.5577 35.9222H19.9608C19.321 33.4904 17.1038 31.6914 14.474 31.6914C11.8442 31.6914 9.62712 33.4904 8.98731 35.9222H1.44231C0.645769 35.9222 0 36.5679 0 37.3645C0 38.161 0.645769 38.8068 1.44231 38.8068H8.9875C9.62731 41.2387 11.8444 43.0376 14.4742 43.0376C17.104 43.0376 19.3212 41.2387 19.961 38.8068H43.5577C44.3542 38.8068 45 38.161 45 37.3645C45 36.5679 44.3542 35.9222 43.5577 35.9222ZM14.4742 40.1529C12.9367 40.1529 11.6858 38.902 11.6858 37.3645C11.6858 35.827 12.9367 34.576 14.4742 34.576C16.0117 34.576 17.2627 35.827 17.2627 37.3645C17.2627 38.902 16.0117 40.1529 14.4742 40.1529Z" fill="#1B1C20"/>
</g>
<defs>
<clipPath id="clip0_116_473">
<rect width="45" height="45" fill="white"/>
</clipPath>
</defs>
</svg>
